# xmcd
#
# Track frame offsets: 
#        150
#        12870
#        33798
#        46113
#        69722
#        85571
#        102826
#        120939
#        134045
#        153161
#
# Disc length: 2333 seconds
#
# Revision: 1
# Processed by: cddbd v1.5.2PL0 Copyright (c) Steve Scherf et al.
# Submitted via: ExactAudioCopyFreeDBPlugin 1.0
#
DISCID=6e091b0a
DTITLE=Papa John Creach - Papa John Creach
DYEAR=1900
DGENRE=Electric Blues
TTITLE0=The Janitor Drives A Cadillac
TTITLE1=St. Louis Blues
TTITLE2=Papa John's Down Home Blues
TTITLE3=Plunk A Little Funk
TTITLE4=Over The Rainbow
TTITLE5=String Jet Rock
TTITLE6=Danny Boy
TTITLE7=Human Spring
TTITLE8=Soul Fever
TTITLE9=Everytime I Hear Her Name
EXTD=
EXTT0=
EXTT1=
EXTT2=
EXTT3=
EXTT4=
EXTT5=
EXTT6=
EXTT7=
EXTT8=
EXTT9=
PLAYORDER=
